<svg width="93" height="93" viewBox="0 0 93 93" fill="none" xmlns="http://www.w3.org/2000/svg">
<path d="M69.7778 0C72.963 0 75.963 0.611111 78.7778 1.83333C81.5926 3.05556 84.0556 4.72222 86.1667 6.83333C88.2778 8.94444 89.9444 11.4074 91.1667 14.2222C92.3889 17.037 93 20.037 93 23.2222V69.6667C93 72.8519 92.3889 75.8704 91.1667 78.7222C89.9444 81.5741 88.2778 84.0556 86.1667 86.1667C84.0556 88.2778 81.5926 89.9444 78.7778 91.1667C75.963 92.3889 72.963 93 69.7778 93H23.2222C20.037 93 17.037 92.3889 14.2222 91.1667C11.4074 89.9444 8.94444 88.2778 6.83333 86.1667C4.72222 84.0556 3.05556 81.5741 1.83333 78.7222C0.611111 75.8704 0 72.8519 0 69.6667V23.2222C0 20.037 0.611111 17.037 1.83333 14.2222C3.05556 11.4074 4.72222 8.94444 6.83333 6.83333C8.94444 4.72222 11.4074 3.05556 14.2222 1.83333C17.037 0.611111 20.037 0 23.2222 0H69.7778ZM63.8889 20.3333H54.1111C52.1852 20.3333 50.4074 20.6667 48.7778 21.3333C47.1481 22 45.7407 22.8704 44.5556 23.9444C43.3704 25.0185 42.4259 26.2593 41.7222 27.6667C41.0185 29.0741 40.6667 30.4815 40.6667 31.8889V37.7778H32V49.3333H40.6667V72.6667H52.3333V49.3333H61V37.7778H52.3333V34.8889C52.3333 33.9259 52.6852 33.1852 53.3889 32.6667C54.0926 32.1481 54.7037 31.8889 55.2222 31.8889H63.8889V20.3333Z" fill="#3A8394"/>
</svg>
