<svg width="93" height="93" viewBox="0 0 93 93" fill="none" xmlns="http://www.w3.org/2000/svg">
<path d="M62.2222 46.5556C62.2222 45.2963 62.037 43.9259 61.6667 42.4444H66.3333V64.8889C66.3333 65.4815 66.1296 65.963 65.7222 66.3333C65.3148 66.7037 64.8148 66.8889 64.2222 66.8889H27.6667C27.0741 66.8889 26.5926 66.7037 26.2222 66.3333C25.8519 65.963 25.6667 65.4815 25.6667 64.8889V42.4444H30.2222C29.8519 43.9259 29.6667 45.2963 29.6667 46.5556C29.6667 48.7778 30.0926 50.8889 30.9444 52.8889C31.7963 54.8889 32.963 56.6111 34.4444 58.0556C35.9259 59.5 37.6667 60.6481 39.6667 61.5C41.6667 62.3519 43.7778 62.7778 46 62.7778C48.2222 62.7778 50.3333 62.3519 52.3333 61.5C54.3333 60.6481 56.0556 59.5 57.5 58.0556C58.9444 56.6111 60.0926 54.8889 60.9444 52.8889C61.7963 50.8889 62.2222 48.7778 62.2222 46.5556ZM46 56.6667C44.5926 56.6667 43.2593 56.4074 42 55.8889C40.7407 55.3704 39.6481 54.6481 38.7222 53.7222C37.7963 52.7963 37.0741 51.7222 36.5556 50.5C36.037 49.2778 35.7778 47.963 35.7778 46.5556C35.7778 45.1481 36.037 43.8148 36.5556 42.5556C37.0741 41.2963 37.7963 40.2037 38.7222 39.2778C39.6481 38.3519 40.7407 37.6296 42 37.1111C43.2593 36.5926 44.5926 36.3333 46 36.3333C47.4074 36.3333 48.7222 36.5926 49.9444 37.1111C51.1667 37.6296 52.2407 38.3519 53.1667 39.2778C54.0926 40.2037 54.8148 41.2963 55.3333 42.5556C55.8519 43.8148 56.1111 45.1481 56.1111 46.5556C56.1111 47.963 55.8519 49.2778 55.3333 50.5C54.8148 51.7222 54.0926 52.7963 53.1667 53.7222C52.2407 54.6481 51.1667 55.3704 49.9444 55.8889C48.7222 56.4074 47.4074 56.6667 46 56.6667ZM64.2222 26.2222C64.8148 26.2222 65.3148 26.4074 65.7222 26.7778C66.1296 27.1481 66.3333 27.6296 66.3333 28.2222V34.3333C66.3333 34.9259 66.1296 35.4074 65.7222 35.7778C65.3148 36.1481 64.8148 36.3333 64.2222 36.3333H58.1111C57.5185 36.3333 57.037 36.1481 56.6667 35.7778C56.2963 35.4074 56.1111 34.9259 56.1111 34.3333V28.2222C56.1111 27.6296 56.2963 27.1481 56.6667 26.7778C57.037 26.4074 57.5185 26.2222 58.1111 26.2222H64.2222ZM69.6667 0C72.8519 0 75.8704 0.611111 78.7222 1.83333C81.5741 3.05556 84.0556 4.72222 86.1667 6.83333C88.2778 8.94444 89.9444 11.4074 91.1667 14.2222C92.3889 17.037 93 20.037 93 23.2222V69.6667C93 72.8519 92.3889 75.8704 91.1667 78.7222C89.9444 81.5741 88.2778 84.0556 86.1667 86.1667C84.0556 88.2778 81.5741 89.9444 78.7222 91.1667C75.8704 92.3889 72.8519 93 69.6667 93H23.2222C20.037 93 17.037 92.3889 14.2222 91.1667C11.4074 89.9444 8.94444 88.2778 6.83333 86.1667C4.72222 84.0556 3.05556 81.5741 1.83333 78.7222C0.611111 75.8704 0 72.8519 0 69.6667V23.2222C0 20.037 0.611111 17.037 1.83333 14.2222C3.05556 11.4074 4.72222 8.94444 6.83333 6.83333C8.94444 4.72222 11.4074 3.05556 14.2222 1.83333C17.037 0.611111 20.037 0 23.2222 0H69.6667ZM72.4444 26.2222C72.4444 24.5185 71.8519 23.0741 70.6667 21.8889C69.4815 20.7037 68.037 20.1111 66.3333 20.1111H25.6667C23.963 20.1111 22.5185 20.7037 21.3333 21.8889C20.1481 23.0741 19.5556 24.5185 19.5556 26.2222V66.8889C19.5556 68.5926 20.1481 70.037 21.3333 71.2222C22.5185 72.4074 23.963 73 25.6667 73H66.3333C68.037 73 69.4815 72.4074 70.6667 71.2222C71.8519 70.037 72.4444 68.5926 72.4444 66.8889V26.2222Z" fill="#3A8394"/>
</svg>
