<svg width="85" height="117" viewBox="0 0 85 117" fill="none" xmlns="http://www.w3.org/2000/svg">
<path d="M43.8584 99.0076C43.8538 99.064 43.8513 99.0935 43.8513 99.0935C43.8535 99.065 43.8559 99.0363 43.8584 99.0076C44.0106 97.2856 44.8116 95.1317 46.1391 96.152C46.7994 96.6594 46.8012 98.3814 46.5688 99.897C47.4335 98.7932 48.6051 97.8611 49.2319 98.3081C49.7647 98.7541 49.9383 99.6366 49.8401 100.607C49.7151 101.841 49.1497 103.217 48.3235 104.016C47.3023 105.004 48.3997 102.162 49.8401 100.607C49.9383 99.6366 49.7647 98.7541 49.2319 98.3081C48.6051 97.8611 47.4335 98.7932 46.5688 99.897C46.326 101.48 45.8278 102.838 45.5572 102.352C45.3129 101.913 45.8283 100.842 46.5688 99.897C46.8012 98.3814 46.7994 96.6594 46.1391 96.152C44.8116 95.1317 44.0106 97.2856 43.8584 99.0076Z" fill="#D9D9D9" fill-opacity="0.01"/>
<path d="M42.7887 114.479C42.7887 114.479 41.8175 111.769 41.5 106.573V98.3081C41.7611 90.6308 42.0501 83.0552 42.0501 83.0552C42.0501 83.0552 42.5627 80.6855 43.8513 82.2041C45.14 83.7228 43.8513 99.0935 43.8513 99.0935C43.984 97.3584 44.7894 95.1146 46.1391 96.152C47.4889 97.1893 46.0869 103.303 45.5572 102.352C45.0275 101.401 48.0684 97.4783 49.2319 98.3081C50.4426 99.3218 49.7988 102.59 48.3235 104.016C46.8481 105.443 49.7948 98.8765 51.8092 99.7455C53.8236 100.614 52.2987 107.602 51.8092 107.821" stroke="#3A8394" stroke-width="2" stroke-linecap="round"/>
<path d="M40.4509 41.3481C40.8424 42.3096 40.4547 48.5457 40.4547 52.3915C40.4547 56.2373 46.8958 66.1803 45.9309 69.5294C44.9659 72.8784 42.8215 71.6337 40.8424 73.0759C39.8119 73.8269 41.2383 74.9988 41.6341 77.8831C42.0299 80.7675 38.4675 80.2867 38.4676 81.2482C38.4676 82.2096 40.4509 82.6313 40.4509 84.1325C40.4509 85.6337 40.8424 86.5361 38.0718 87.0169C35.3012 87.4976 39.655 91.8241 35.6969 97.0318C31.7389 102.239 20.6564 90.8036 17.49 96.5723C14.3235 102.341 14.3235 101.86 14.3235 101.86" stroke="#3A8394" stroke-width="2" stroke-linecap="round"/>
<path d="M72.2059 76.6521C72.2059 98.5187 56.8112 116 38.1029 116C19.3946 116 4 98.5187 4 76.6521C4 54.7856 19.3946 37.3042 38.1029 37.3042C56.8112 37.3042 72.2059 54.7856 72.2059 76.6521Z" fill="#D9D9D9" fill-opacity="0.01" stroke="#3A8394" stroke-width="2"/>
<g filter="url(#filter0_d_9089_71)">
<path d="M5.26465 24.3079C5.26465 26.3256 6.10371 27.2151 7.87169 27.2151C9.84767 27.2151 10.8194 25.277 12.434 25.277C15.4101 25.277 15.842 32.0634 18.8309 26.7306C19.1128 26.2277 20.8961 22.3698 20.9069 22.3698C22.0337 22.3698 22.2104 27.1562 22.2104 28.1842C22.2104 29.5373 22.7544 32.9227 24.383 33.0295C25.4353 33.0986 25.6865 28.688 25.6865 27.4574C25.6865 25.1611 26.0982 23.3319 26.5314 21.1584C26.83 19.66 28.728 17.0042 28.728 20.0548C28.728 22.9261 28.728 25.7974 28.728 28.6687C28.728 30.5142 28.1359 33.8228 29.3798 35.2099C33.3579 39.6461 33.4093 29.2994 33.5076 27.2151C33.5971 25.3204 34.6273 21.8667 35.4629 20.1894C37.6563 15.7867 37.4182 22.4494 37.4182 24.2002C37.4182 26.527 37.7438 29.0273 37.8527 31.0914C38.0293 34.4385 39.8691 29.1572 40.0494 28.4534C40.3075 27.446 41.9372 25.5331 42.8254 25.2501C44.7614 24.6332 44.7961 26.0253 46.5429 27.1074C47.3095 27.5824 50.4178 29.4622 51.2259 28.561C52.3388 27.32 52.085 24.6425 53.2777 23.608C55.0362 22.0828 56.102 22.8134 56.102 25.277C56.102 28.038 57.249 28.9055 57.8642 31.3067C58.5783 34.0937 59.9347 29.4229 60.0367 28.911C60.3318 27.4302 61.4336 23.9238 63.0541 23.8234C65.4452 23.6752 65.5523 24.5193 66.4336 26.7306C67.2707 28.8308 67.9594 25.7561 69.3786 25.3039C70.2673 25.0207 72.9638 26.9372 73.4582 25.0078C73.6979 24.0722 74.3701 23.9349 74.7858 23.1235C75.2309 22.255 75.2203 24.9802 75.2203 25.277C75.2203 26.7902 79.2117 33.3338 79.9999 31.5759" stroke="#3A8394" stroke-width="2" stroke-linecap="round" shape-rendering="crispEdges"/>
</g>
<g filter="url(#filter1_d_9089_71)">
<path d="M5.26465 6.29286C6.33307 6.29286 6.95916 7.17567 8.05648 7.17567C8.49009 7.17567 10.2044 4.52946 10.3949 5.90049C10.7659 8.56924 14.5634 11.6905 15.8116 12.4235C16.6782 12.9324 18.2311 12.6561 18.9136 11.3935C20.0416 9.30692 20.1784 13.1188 21.1566 13.3554C24.078 14.0618 23.9048 9.01302 25.9767 5.60622C27.095 3.76749 27.8679 6.22719 28.2436 7.61707C28.8354 9.80671 28.9482 10.8618 29.7469 12.9139C31.3058 16.9192 33.0455 16.0533 34.6863 13.3554C36.794 9.8897 37.7649 13.3554 40.0552 13.3554C42.2819 13.3554 44.4679 11.9262 46.1638 9.13747C47.9107 6.2651 49.6584 10.2537 51.0078 12.4725C52.5123 14.9464 54.0897 16.8866 56.162 16.8866C57.3943 16.8866 58.2792 19.1691 59.0492 16.0038C59.5984 13.7464 59.2659 11.64 60.1469 9.62792C60.2508 9.39069 64.4199 -2.23022 64.5375 1.8788C64.6278 5.03427 65.2285 12.1962 66.4703 14.2382C67.3814 15.7364 66.8596 18.6522 68.6178 18.6522C69.5096 18.6522 70.9258 18.1366 71.4097 16.3961C72.3807 12.9033 72.3208 8.40325 74.4163 6.48904C75.3498 5.63628 77.2907 6.63281 77.4229 8.94129C77.5369 10.9341 79.565 8.91902 79.9999 10.7069" stroke="#3A8394" stroke-width="2" stroke-linecap="round" shape-rendering="crispEdges"/>
</g>
<defs>
<filter id="filter0_d_9089_71" x="0.264648" y="17.6526" width="84.7356" height="27.6516" filterUnits="userSpaceOnUse" color-interpolation-filters="sRGB">
<feFlood flood-opacity="0" result="BackgroundImageFix"/>
<feColorMatrix in="SourceAlpha" type="matrix" values="0 0 0 0 0 0 0 0 0 0 0 0 0 0 0 0 0 0 127 0" result="hardAlpha"/>
<feOffset dy="4"/>
<feGaussianBlur stdDeviation="2"/>
<feComposite in2="hardAlpha" operator="out"/>
<feColorMatrix type="matrix" values="0 0 0 0 0 0 0 0 0 0 0 0 0 0 0 0 0 0 0.25 0"/>
<feBlend mode="normal" in2="BackgroundImageFix" result="effect1_dropShadow_9089_71"/>
<feBlend mode="normal" in="SourceGraphic" in2="effect1_dropShadow_9089_71" result="shape"/>
</filter>
<filter id="filter1_d_9089_71" x="0.264648" y="-0.0012207" width="84.7356" height="27.6536" filterUnits="userSpaceOnUse" color-interpolation-filters="sRGB">
<feFlood flood-opacity="0" result="BackgroundImageFix"/>
<feColorMatrix in="SourceAlpha" type="matrix" values="0 0 0 0 0 0 0 0 0 0 0 0 0 0 0 0 0 0 127 0" result="hardAlpha"/>
<feOffset dy="4"/>
<feGaussianBlur stdDeviation="2"/>
<feComposite in2="hardAlpha" operator="out"/>
<feColorMatrix type="matrix" values="0 0 0 0 0 0 0 0 0 0 0 0 0 0 0 0 0 0 0.25 0"/>
<feBlend mode="normal" in2="BackgroundImageFix" result="effect1_dropShadow_9089_71"/>
<feBlend mode="normal" in="SourceGraphic" in2="effect1_dropShadow_9089_71" result="shape"/>
</filter>
</defs>
</svg>
