<svg width="93" height="93" viewBox="0 0 93 93" fill="none" xmlns="http://www.w3.org/2000/svg">
<path d="M69.7778 0C72.963 0 75.963 0.611111 78.7778 1.83333C81.5926 3.05556 84.0556 4.72222 86.1667 6.83333C88.2778 8.94444 89.9444 11.4074 91.1667 14.2222C92.3889 17.037 93 20.037 93 23.2222V69.6667C93 72.8519 92.3889 75.8704 91.1667 78.7222C89.9444 81.5741 88.2778 84.0556 86.1667 86.1667C84.0556 88.2778 81.5926 89.9444 78.7778 91.1667C75.963 92.3889 72.963 93 69.7778 93H23.2222C20.037 93 17.037 92.3889 14.2222 91.1667C11.4074 89.9444 8.94444 88.2778 6.83333 86.1667C4.72222 84.0556 3.05556 81.5741 1.83333 78.7222C0.611111 75.8704 0 72.8519 0 69.6667V23.2222C0 20.037 0.611111 17.037 1.83333 14.2222C3.05556 11.4074 4.72222 8.94444 6.83333 6.83333C8.94444 4.72222 11.4074 3.05556 14.2222 1.83333C17.037 0.611111 20.037 0 23.2222 0H69.7778ZM39.4444 42.2222C39.4444 43.9259 40 45.2593 41.1111 46.2222C42.1481 47.1852 43.6296 47.6667 45.5556 47.6667C47.5556 47.6667 49.0741 47.1852 50.1111 46.2222C51.2222 45.3333 51.7778 44 51.7778 42.2222V32C51.7778 30.5926 51.2222 29.3704 50.1111 28.3333C49.0741 27.3704 47.6296 26.8889 45.7778 26.8889C43.8519 26.8889 42.3333 27.3333 41.2222 28.2222C40.037 29.1111 39.4444 30.3333 39.4444 31.8889V42.2222ZM33.4444 47.6667H20.3333V51.2222H24.7778V72.1111H29V51.2222H33.4444V47.6667ZM33.5556 36.1111L39.1111 20.3333H34.2222L31.3333 31.1111H31L27.8889 20.3333H23.1111L28.7778 36.5556V47.2222H33.5556V36.1111ZM45.8889 54.1111H42.1111V67.7778C41.963 68 41.7778 68.1852 41.5556 68.3333L40.8889 68.7778C40.4444 69 40.1111 69.1111 39.8889 69.1111C39.5185 69.1111 39.2593 69.037 39.1111 68.8889C38.963 68.7407 38.8889 68.4074 38.8889 67.8889V54.1111H35.1111V69.2222C35.1111 70.2593 35.3333 71.037 35.7778 71.5556C36.2222 72.1481 36.8519 72.4444 37.6667 72.4444C38.3333 72.4444 39.0741 72.2222 39.8889 71.7778C40.5556 71.4815 41.2963 70.9259 42.1111 70.1111V72.1111H45.8889V54.1111ZM59.5556 58.4444C59.5556 56.963 59.2222 55.8148 58.5556 55C58.037 54.2593 57.1481 53.8889 55.8889 53.8889C55.2222 53.8889 54.6296 54.037 54.1111 54.3333C53.5185 54.5556 53 54.963 52.5556 55.5556V47.6667H48.6667V72.1111H52.5556V70.7778C52.7778 71.0741 53.0185 71.3148 53.2778 71.5C53.537 71.6852 53.8148 71.8519 54.1111 72C54.6296 72.2222 55.2963 72.3333 56.1111 72.3333C57.2222 72.3333 58.0741 72 58.6667 71.3333C59.2593 70.5926 59.5556 69.6296 59.5556 68.4444V58.4444ZM58.2222 47.4444C59.1111 47.4444 59.9259 47.2593 60.6667 46.8889C61.4074 46.5185 62.2222 45.8889 63.1111 45V47.2222H67.3333V27.3333H63.1111V42.4444C62.8148 42.8148 62.3704 43.1852 61.7778 43.5556C61.3333 43.7778 60.963 43.8889 60.6667 43.8889C60.1481 43.8889 59.8519 43.7778 59.7778 43.5556C59.5556 43.3333 59.4444 43 59.4444 42.5556V27.3333H55.2222V44C55.2222 45.1852 55.4815 46.037 56 46.5556C56.3704 47.1481 57.1111 47.4444 58.2222 47.4444ZM72.6667 59C72.6667 57.2222 72.1852 55.8889 71.2222 55C70.3333 54.1111 69 53.6667 67.2222 53.6667C65.5185 53.6667 64.1481 54.1481 63.1111 55.1111C62.0741 56.1481 61.5556 57.4444 61.5556 59V67C61.5556 68.7778 62.037 70.1481 63 71.1111C64.037 72.1481 65.3704 72.6667 67 72.6667C68.8519 72.6667 70.2593 72.1852 71.2222 71.2222C72.1852 70.3333 72.6667 68.9259 72.6667 67V66.1111H68.7778V66.8889C68.7778 68 68.6667 68.7037 68.4444 69C68.1481 69.2963 67.7037 69.4444 67.1111 69.4444C66.3704 69.4444 65.9259 69.2593 65.7778 68.8889C65.5556 68.5926 65.4444 67.9259 65.4444 66.8889V63.5556H72.6667V59ZM67.1111 56.7778C67.7037 56.7778 68.1111 56.963 68.3333 57.3333C68.6296 57.6296 68.7778 58.1481 68.7778 58.8889V60.7778H65.4444V58.8889C65.4444 58.2222 65.5556 57.7037 65.7778 57.3333C66.1481 56.963 66.5926 56.7778 67.1111 56.7778ZM54.1111 56.7778C54.6296 56.7778 55 56.9259 55.2222 57.2222C55.5185 57.5185 55.6667 57.963 55.6667 58.5556V67.8889C55.6667 68.4815 55.5556 68.8889 55.3333 69.1111C55.1111 69.4074 54.7778 69.5556 54.3333 69.5556C54.037 69.5556 53.7407 69.4815 53.4444 69.3333C53.0741 69.1852 52.7778 68.963 52.5556 68.6667V57.4444C52.8519 57.1481 53.1111 56.963 53.3333 56.8889C53.4815 56.8148 53.7407 56.7778 54.1111 56.7778ZM45.5556 44.2222C44.963 44.2222 44.5556 44.0741 44.3333 43.7778C43.963 43.5556 43.7778 43.1481 43.7778 42.5556V31.7778C43.7778 31.4074 43.963 31.037 44.3333 30.6667C44.6296 30.4444 45.037 30.3333 45.5556 30.3333C46.0741 30.3333 46.5556 30.4444 47 30.6667C47.2963 30.963 47.4444 31.3333 47.4444 31.7778V42.5556C47.4444 43.1481 47.2963 43.5556 47 43.7778C46.7037 44.0741 46.2222 44.2222 45.5556 44.2222Z" fill="#3A8394"/>
</svg>
